<svg id="Слой_1" data-name="Слой 1" xmlns="http://www.w3.org/2000/svg" viewBox="0 0 2709.41 1512.57"><defs><style>.cls-1,.cls-2{fill:#fff;}.cls-2{fill-rule:evenodd;}</style></defs><title>Farba_logo_black2</title><path class="cls-1" d="M2433.48,824.4l-40.27-93.34-40.73,93.34ZM2393,519.54l201.43,450.23h-96.14l-29.8-67.08H2317.44l-29.8,67.08h-95.86ZM2056,652.77A37.74,37.74,0,0,0,2045.1,626a35.48,35.48,0,0,0-26.34-11.21H1984v80.72c7.85-.28,18.87-1,33.17-2.14,10.93-1.31,20.08-5.61,27.37-12.9A37,37,0,0,0,2056,652.77Zm3.55,230.48c14.2,0,26.35-5.13,36.44-15.6a51.33,51.33,0,0,0,14.76-36.9c0-14.48-5.14-26.91-15.32-37.56-10.09-10.18-22.05-15.79-35.88-16.63-10.55-.56-23.17-.75-37.74-.56h-18.41c-7.84.19-14.29.28-19.43.28v107Zm81.85-234c0,9.71-2.06,20.74-6.08,33.16a183.94,183.94,0,0,1-12.24,27.94,163.16,163.16,0,0,1,17.76,10.09A121.55,121.55,0,0,1,2157,732.74q40.21,40.78,40.27,98,0,57.45-40.27,97.91-40.23,41.07-97.45,41.11h-164V528.51h123.14q51.28,0,87.63,36.72Q2141.43,600.83,2141.43,649.22ZM1686,738.44c16.07,0,29.81-6.07,41.3-18.31,11.3-12.24,17-26.81,17-43.82q0-24.1-17.56-42.41-18.08-17.52-54.75-17.48h-49.8V738.16h34.2v.28ZM1533.49,528.51h144q70.08,0,115.48,44.94,22.27,22.14,31.49,41.85,11.21,24.11,11.21,58.3v11.49q0,44.56-27.85,84.09-20,27.89-52.88,40.73l102.68,159.86H1749.22L1622.43,774.6V969.77h-88.66ZM1334.21,824.4l-40.27-93.34-40.73,93.34Zm-40.46-304.86,201.44,450.23h-96.14l-29.81-67.08H1218.17l-29.8,67.08h-95.86Zm-141,7.94v88.38H975.35v88.95h133v88.38h-133V970.33H886.69V527.48Z"/><path class="cls-1" d="M479.87,884.33A159.59,159.59,0,1,0,705.51,1110Z"/><path class="cls-2" d="M620.11,683.84,496.83,560.56a17.85,17.85,0,0,0-25.26,0L321.74,710.39c-9.65,8.42-26.08-2.93-15.86-15.86L517.41,483c34.8-37.05,48.64-59.69,0-105.38L410.12,270.32c14.23,26.93-.05,46.5-25.87,74L383,345.58c-.39.41-.79.81-1.19,1.21,0,0-220,220.07-220.73,221-56.37,60.4-57.35,131.11-24.37,195.19a125.67,125.67,0,0,0,22.84,31.23l276.32,276.32c-46.47-73.8-43-145.93,13.87-216.29Zm-136-94.22a4.34,4.34,0,0,1,7.41-3.06l96.83,97.28-96,96a5.26,5.26,0,0,1-5.9.27,4.28,4.28,0,0,1-2.3-3.83Zm42.37-180.29a2.34,2.34,0,0,1,3.94-1.33c4.2,4.12,10.59,11.87,10.59,20.94a1.27,1.27,0,0,1,0,.2c-.55,7.13-4,13.24-10.89,21a2.33,2.33,0,0,1-3.42.1l-11.94-12.22a2.33,2.33,0,0,1-.2-3C521.94,425.27,525.47,416.73,526.52,409.33Zm-17.19-22,7,7.19a14.44,14.44,0,0,1,3.32,13.32A49.35,49.35,0,0,1,509.07,429a2.32,2.32,0,0,1-3.45.13l-12-12.25a2.31,2.31,0,0,1-.2-3c7.22-9.57,10.79-17.94,11.92-25.23A2.33,2.33,0,0,1,509.33,387.37Zm-21.09-21.13,6.92,7.12c3.12,3.31,4.16,8.31,3.09,13.36A49,49,0,0,1,488,407.87a2.33,2.33,0,0,1-3.46.13l-12-12.29a2.34,2.34,0,0,1-.2-3c7.22-9.57,10.83-17.91,12-25.19A2.33,2.33,0,0,1,488.24,366.24Zm-21.1-21.13,6.86,7.05c3,3.21,3.85,8.2,2.84,13.39a48.59,48.59,0,0,1-9.95,21.16,2.32,2.32,0,0,1-3.47.16l-12.08-12.33a2.34,2.34,0,0,1-.2-3c7.23-9.57,10.87-17.88,12-25.15A2.33,2.33,0,0,1,467.14,345.11ZM446,324l6.79,7c2.81,3.11,3.54,8.08,2.61,13.43a48.54,48.54,0,0,1-9.64,21.19,2.33,2.33,0,0,1-3.48.16l-12.13-12.38a2.34,2.34,0,0,1-.2-3c7.24-9.57,10.92-17.85,12.09-25.1A2.32,2.32,0,0,1,446,324Zm-37.19,5.17c7.23-9.57,10.95-17.82,12.13-25.07a2.33,2.33,0,0,1,4-1.23l6.72,6.9c6.14,6.95,1.17,24.3-6.94,34.65a2.34,2.34,0,0,1-3.51.2L409,332.19A2.33,2.33,0,0,1,408.85,329.16Z"/></svg>