<svg width="0" height="0" class="hidden">
  <!-- ! -->
  <symbol version="1.1" id="phone"
    xmlns="http://www.w3.org/2000/svg"
    xmlns:xlink="http://www.w3.org/1999/xlink" x="0px" y="0px" xml:space="preserve" viewBox="0 0 485.213 485.212">
    <g>
      <path d="M242.607,0C108.629,0,0.001,108.628,0.001,242.606c0,133.976,108.628,242.606,242.606,242.606
		c133.978,0,242.604-108.631,242.604-242.606C485.212,108.628,376.585,0,242.607,0z M370.719,353.989l-19.425,19.429
		c-3.468,3.463-13.623,5.624-13.949,5.624c-61.452,0.536-120.621-23.602-164.095-67.08c-43.593-43.618-67.759-102.998-67.11-164.657
		c0-0.028,2.224-9.892,5.689-13.324l19.424-19.427c7.108-7.141,20.762-10.368,30.327-7.168l4.086,1.363
		c9.537,3.197,19.55,13.742,22.185,23.457l9.771,35.862c2.635,9.743-0.919,23.604-8.025,30.712l-12.97,12.972
		c12.734,47.142,49.723,84.138,96.873,96.903l12.965-12.975c7.141-7.141,20.997-10.692,30.719-8.061l35.857,9.806
		c9.717,2.67,20.26,12.62,23.456,22.154l1.363,4.145C381.028,333.262,377.826,346.913,370.719,353.989z"></path>
    </g>
    <g></g>
    <g></g>
    <g></g>
    <g></g>
    <g></g>
    <g></g>
    <g></g>
    <g></g>
    <g></g>
    <g></g>
    <g></g>
    <g></g>
    <g></g>
    <g></g>
    <g></g>
  </symbol>
  <!-- ! -->
  <symbol fill="none"
    xmlns="http://www.w3.org/2000/svg" viewBox="0 0 48 48" id="gmail_logo_icon_147283">
    <path d="M0 24C0 10.7452 10.7452 0 24 0C37.2548 0 48 10.7452 48 24C48 37.2548 37.2548 48 24 48C10.7452 48 0 37.2548 0 24Z" fill="white"></path>
    <path d="M34.4697 33.23H13.5009C12.6878 33.23 12.0031 32.5667 12.0031 31.7322V16.5833C12.0031 15.7703 12.6664 15.0856 13.5009 15.0856H34.4697C35.2828 15.0856 35.9675 15.7489 35.9675 16.5833V31.7322C35.9675 32.5667 35.3042 33.23 34.4697 33.23Z" fill="#E3E3E3"></path>
    <path opacity="0.1" d="M14.9987 33.23L23.9639 26.0193L24.0281 25.6342L14.7847 18.9798L14.7633 32.9091L14.9987 33.23Z" fill="#231F20"></path>
    <path d="M13.5009 33.23C12.6664 33.23 12.0031 32.5667 12.0031 31.7322V16.5619C12.0031 15.7275 12.6664 15.5777 13.5009 15.5777C14.3354 15.5777 14.9987 15.7489 14.9987 16.5619V33.23H13.5009Z" fill="#D54B3D"></path>
    <path fill-rule="evenodd" clip-rule="evenodd" d="M12.0031 16.5619C12.0031 15.7489 12.6664 15.5777 13.5009 15.5777C14.3354 15.5777 14.9987 15.7275 14.9987 16.5619V33.23H13.5009C12.6664 33.23 12.0031 32.5667 12.0031 31.7322V16.5619ZM14.7847 16.5619C14.7847 16.1126 14.5707 15.7917 13.5009 15.7917C12.4311 15.7917 12.2171 16.0912 12.2171 16.5619V31.7322C12.2171 32.4383 12.7948 33.016 13.5009 33.016H14.7847V16.5619Z" fill="#D72B27"></path>
    <path d="M34.4697 33.23H32.9719V16.5192C32.9719 15.6847 33.6352 15.5777 34.4697 15.5777C35.3041 15.5777 35.9674 15.6847 35.9674 16.5192V31.7536C35.9674 32.5667 35.3041 33.23 34.4697 33.23Z" fill="#D54B3D"></path>
    <path fill-rule="evenodd" clip-rule="evenodd" d="M32.9719 16.5192C32.9719 15.6847 33.6352 15.5777 34.4697 15.5777C35.3041 15.5777 35.9674 15.6847 35.9674 16.5192V31.7536C35.9674 32.5881 35.3041 33.2514 34.4697 33.2514H32.9719V16.5192ZM35.7535 16.5192C35.7535 15.9842 35.4325 15.7917 34.4697 15.7917C33.5068 15.7917 33.1859 15.9628 33.1859 16.5192V33.0374H34.4697C35.1758 33.0374 35.7535 32.4597 35.7535 31.7536V16.5192Z" fill="#D72B27"></path>
    <path d="M28.0507 33.23L12.1285 17.1842L12.966 17.5248L24.0495 25.5058L35.9675 16.7666V31.7536C35.9675 32.5667 35.3042 33.23 34.4697 33.23H28.0507Z" fill="url(#paint0_linear)"></path>
    <path d="M23.9639 26.0193L12.645 17.803C11.9817 17.3109 11.7892 16.3694 12.2813 15.7061C12.7734 15.0428 13.7363 14.893 14.421 15.3851L23.9853 22.3391L33.6138 15.2996C34.2771 14.8074 35.2186 14.9572 35.7107 15.6419C36.2028 16.3052 36.053 17.2467 35.3683 17.7388L23.9639 26.0193Z" fill="#D54B3D"></path>
    <path fill-rule="evenodd" clip-rule="evenodd" d="M33.5924 15.2782C33.8492 15.0856 34.1701 15 34.4697 15C34.9404 15 35.3897 15.214 35.6893 15.6419C36.16 16.3266 36.0103 17.2467 35.347 17.7388L23.9639 26.0407L12.645 17.803C11.9817 17.3108 11.7892 16.3694 12.2599 15.7061C12.5594 15.2996 13.0302 15.0856 13.5009 15.0856C13.8219 15.0856 14.1428 15.1712 14.3996 15.3637L23.9639 22.3177L33.5924 15.2782ZM35.5181 15.7489C35.2614 15.4065 34.8762 15.214 34.4697 15.214C34.1915 15.214 33.9348 15.2996 33.6994 15.4493L24.0923 22.4889L23.9639 22.5744L23.8355 22.4889L14.2926 15.5563C14.0786 15.3851 13.8005 15.2996 13.5223 15.2996C13.0944 15.2996 12.6878 15.5135 12.4525 15.8345C12.0459 16.3908 12.1957 17.2039 12.7734 17.6318L23.9639 25.7625L35.24 17.5462C35.7963 17.1183 35.9247 16.3266 35.5181 15.7489Z" fill="#D72B27"></path>
    <defs>
      <linearGradient id="paint0_linear" x1="12.1294" y1="33.2319" x2="35.9752" y2="33.2319" gradientUnits="userSpaceOnUse">
        <stop stop-opacity="0.1"></stop>
        <stop offset="1" stop-opacity="0.2"></stop>
      </linearGradient>
    </defs>
  </symbol>
  <!-- ! -->
  <symbol enable-background="new 0 0 128 128" id="Viber_icon-icons.com_66792" version="1.1" xml:space="preserve"
    xmlns="http://www.w3.org/2000/svg"
    xmlns:xlink="http://www.w3.org/1999/xlink" viewBox="0 0 128 128">
    <g id="_x34__stroke">
      <g id="Viber_1_">
        <rect clip-rule="evenodd" fill="none" fill-rule="evenodd" height="128" width="128"></rect>
        <path clip-rule="evenodd" d="M71.4,44.764c2.492,0.531,4.402,1.478,6.034,3.006    c2.1,1.983,3.251,4.383,3.757,7.831c0.342,2.248,0.202,3.132-0.595,3.865c-0.746,0.682-2.125,0.707-2.96,0.063    c-0.607-0.455-0.797-0.935-0.936-2.236c-0.164-1.731-0.468-2.943-0.987-4.067c-1.113-2.387-3.074-3.625-6.388-4.029    c-1.556-0.19-2.024-0.366-2.53-0.96c-0.924-1.099-0.569-2.88,0.708-3.537c0.481-0.24,0.683-0.265,1.746-0.202    C69.908,44.536,70.882,44.65,71.4,44.764z M68.706,35.227c7.679,1.124,13.624,4.686,17.521,10.471    c2.189,3.259,3.555,7.086,4.023,11.191c0.164,1.503,0.164,4.244-0.013,4.699c-0.165,0.429-0.696,1.01-1.151,1.25    c-0.493,0.253-1.543,0.227-2.125-0.076c-0.974-0.493-1.265-1.276-1.265-3.398c0-3.271-0.848-6.72-2.315-9.398    c-1.67-3.057-4.099-5.583-7.059-7.339c-2.543-1.516-6.3-2.64-9.728-2.918c-1.24-0.101-1.923-0.354-2.391-0.897    c-0.721-0.821-0.797-1.933-0.19-2.855C64.67,34.937,65.682,34.772,68.706,35.227z M38.914,27.434    c0.443,0.152,1.126,0.505,1.518,0.758c2.403,1.592,9.095,10.143,11.284,14.412c1.252,2.438,1.67,4.244,1.278,5.583    c-0.405,1.44-1.075,2.198-4.074,4.61c-1.202,0.972-2.328,1.97-2.505,2.236c-0.455,0.657-0.822,1.945-0.822,2.855    c0.013,2.109,1.379,5.937,3.175,8.88c1.391,2.286,3.883,5.216,6.35,7.465c2.897,2.653,5.452,4.459,8.337,5.886    c3.707,1.844,5.971,2.311,7.628,1.541c0.417-0.19,0.86-0.442,0.999-0.556c0.126-0.114,1.101-1.301,2.163-2.615    c2.049-2.577,2.517-2.994,3.922-3.474c1.784-0.606,3.605-0.442,5.44,0.493c1.392,0.72,4.428,2.602,6.388,3.966    c2.581,1.806,8.096,6.303,8.843,7.2c1.315,1.617,1.543,3.688,0.658,5.975c-0.936,2.412-4.579,6.934-7.122,8.867    c-2.302,1.743-3.934,2.412-6.085,2.513c-1.771,0.088-2.505-0.063-4.769-0.998C63.76,95.718,49.579,84.805,38.32,69.811    c-5.882-7.831-10.361-15.953-13.422-24.378c-1.784-4.913-1.872-7.048-0.405-9.562c0.633-1.061,3.327-3.688,5.288-5.153    c3.264-2.425,4.769-3.322,5.971-3.575C36.574,26.966,38.004,27.105,38.914,27.434z M67.833,26.07    c4.352,0.543,7.868,1.591,11.727,3.474c3.795,1.857,6.224,3.613,9.437,6.808c3.011,3.019,4.681,5.305,6.452,8.854    c2.467,4.951,3.871,10.838,4.111,17.317c0.089,2.21,0.025,2.703-0.481,3.335c-0.961,1.225-3.074,1.023-3.795-0.354    c-0.228-0.455-0.291-0.846-0.367-2.615c-0.127-2.716-0.316-4.471-0.696-6.568c-1.493-8.223-5.44-14.791-11.74-19.503    c-5.25-3.941-10.677-5.861-17.786-6.278c-2.404-0.139-2.821-0.227-3.365-0.644c-1.012-0.796-1.063-2.665-0.089-3.537    c0.595-0.543,1.012-0.619,3.074-0.556C65.392,25.842,66.973,25.969,67.833,26.07z M64,0c35.346,0,64,28.654,64,64    s-28.654,64-64,64S0,99.346,0,64S28.654,0,64,0z" fill="#7F4DA0" fill-rule="evenodd" id="Viber"></path>
      </g>
    </g>
  </symbol>
  <!-- ! -->
  <symbol fill="none"
    xmlns="http://www.w3.org/2000/svg" viewBox="0 0 48 48" id="whatsapp_logo_icon_147205">
    <path d="M24 48C37.2548 48 48 37.2548 48 24C48 10.7452 37.2548 0 24 0C10.7452 0 0 10.7452 0 24C0 37.2548 10.7452 48 24 48Z" fill="#25D366"></path>
    <path fill-rule="evenodd" clip-rule="evenodd" d="M24.7911 37.3525H24.7852C22.3967 37.3517 20.0498 36.7524 17.9653 35.6154L10.4 37.6L12.4246 30.2048C11.1757 28.0405 10.5186 25.5855 10.5196 23.0702C10.5228 15.2017 16.9248 8.79999 24.7909 8.79999C28.6086 8.80164 32.1918 10.2879 34.8862 12.9854C37.5806 15.6828 39.0636 19.2683 39.0621 23.0815C39.059 30.9483 32.6595 37.3493 24.7911 37.3525ZM18.3159 33.0319L18.749 33.2889C20.5702 34.3697 22.6578 34.9415 24.7863 34.9423H24.7911C31.3288 34.9423 36.6499 29.6211 36.6525 23.0807C36.6538 19.9112 35.4212 16.9311 33.1817 14.689C30.9422 12.4469 27.964 11.2115 24.7957 11.2104C18.2529 11.2104 12.9318 16.5311 12.9292 23.0711C12.9283 25.3124 13.5554 27.4951 14.7427 29.3836L15.0248 29.8324L13.8265 34.2095L18.3159 33.0319ZM31.4924 26.154C31.7411 26.2742 31.9091 26.3554 31.9808 26.4751C32.0699 26.6238 32.0699 27.3378 31.7729 28.1708C31.4756 29.0038 30.051 29.764 29.3659 29.8663C28.7516 29.9582 27.9741 29.9965 27.1199 29.725C26.602 29.5607 25.9379 29.3413 25.0871 28.9739C21.7442 27.5304 19.485 24.2904 19.058 23.678C19.0281 23.6351 19.0072 23.6051 18.9955 23.5895L18.9927 23.5857C18.804 23.3339 17.5395 21.6468 17.5395 19.9008C17.5395 18.2582 18.3463 17.3973 18.7177 17.001C18.7432 16.9739 18.7666 16.9489 18.7875 16.926C19.1144 16.569 19.5007 16.4797 19.7384 16.4797C19.9761 16.4797 20.2141 16.4819 20.4219 16.4924C20.4475 16.4937 20.4742 16.4935 20.5017 16.4933C20.7095 16.4921 20.9686 16.4906 21.2242 17.1045C21.3225 17.3407 21.4664 17.691 21.6181 18.0604C21.9249 18.8074 22.264 19.6328 22.3236 19.7522C22.4128 19.9307 22.4722 20.1389 22.3533 20.3769C22.3355 20.4126 22.319 20.4463 22.3032 20.4785C22.2139 20.6608 22.1483 20.7948 21.9967 20.9718C21.9372 21.0413 21.8756 21.1163 21.814 21.1913C21.6913 21.3407 21.5687 21.4901 21.4619 21.5965C21.2833 21.7743 21.0975 21.9672 21.3055 22.3242C21.5135 22.6812 22.2292 23.8489 23.2892 24.7945C24.4288 25.8109 25.4192 26.2405 25.9212 26.4582C26.0192 26.5008 26.0986 26.5352 26.1569 26.5644C26.5133 26.7429 26.7213 26.713 26.9294 26.4751C27.1374 26.2371 27.8208 25.4338 28.0584 25.0769C28.2961 24.7201 28.5339 24.7795 28.8607 24.8984C29.1877 25.0176 30.9408 25.8801 31.2974 26.0586C31.367 26.0934 31.4321 26.1249 31.4924 26.154Z" fill="#FDFDFD"></path>
  </symbol>
  <!-- ! -->
  <symbol xmlns="http://www.w3.org/2000/svg" viewBox="0 0 64 64" id="telegram_logo_icon_168692">
    <defs>
      <clipPath id="A">
        <path d="M15.903 131.998c0-65.17 52.83-118 118-118s118 52.83 118 118-52.83 118-118 118-118-52.83-118-118"></path>
      </clipPath>
      <linearGradient x1="133.903" y1="13.999" x2="133.903" y2="249.999" gradientUnits="userSpaceOnUse" spreadMethod="pad" id="B">
        <stop offset="0" stop-color="#1d93d2"></stop>
        <stop offset="1" stop-color="#38b0e3"></stop>
      </linearGradient>
      <clipPath id="C">
        <path d="M0 265.9h266.987V0H0z"></path>
      </clipPath>
      <clipPath id="D">
        <path d="M0 265.9h266.987V0H0z"></path>
      </clipPath>
      <clipPath id="E">
        <path d="M0 265.9h266.987V0H0z"></path>
      </clipPath>
    </defs>
    <g transform="matrix(.271187 0 0 -.271187 -4.312678 67.796339)">
      <path d="M15.903 131.998c0-65.17 52.83-118 118-118s118 52.83 118 118-52.83 118-118 118-118-52.83-118-118" fill="url(#B)" clip-path="url(#A)"></path>
      <g clip-path="url(#C)">
        <path d="M95.778 123.374l14-38.75S111.528 81 113.403 81s29.75 29 29.75 29l31 59.875-77.875-36.5z" fill="#c8daea"></path>
      </g>
      <g clip-path="url(#D)">
        <path d="M114.34 113.436l-2.688-28.562s-1.125-8.75 7.625 0 17.125 15.5 17.125 15.5" fill="#a9c6d8"></path>
      </g>
      <g clip-path="url(#E)">
        <path d="M96.03 121.99l-28.795 9.383s-3.437 1.395-2.333 4.562c.228.653.687 1.208 2.062 2.167 6.382 4.447 118.104 44.604 118.104 44.604s3.155 1.062 5.02.356c.852-.323 1.396-.688 1.854-2.02.167-.485.263-1.516.25-2.542-.01-.74-.1-1.425-.166-2.5-.68-10.98-21.04-92.918-21.04-92.918s-1.218-4.795-5.583-4.958c-1.592-.06-3.524.263-5.834 2.25-8.565 7.368-38.172 27.265-44.713 31.64-.37.246-.474.567-.537.88-.092.46.4 1.034.4 1.034s51.552 45.825 52.924 50.633c.106.373-.293.557-.834.396-3.424-1.26-62.78-38.74-69.33-42.88-.383-.242-1.457-.086-1.457-.086" fill="#fff"></path>
      </g>
    </g>
  </symbol>
</svg>