<svg width="0" height="0" class="hidden">
  <symbol id="burger" xmlns="http://www.w3.org/2000/svg" viewBox="0 0 12.65 12.57">
    <defs></defs>
    <title>Farba_logo_black</title>
    <path d="M1225.85,1261.74l-28.7-66.52-29,66.52ZM1197,1044.48l143.55,320.86h-68.52l-21.24-47.8H1143.15l-21.24,47.8h-68.32Zm-240.17,94.94a26.9,26.9,0,0,0-7.79-19.1,25.27,25.27,0,0,0-18.78-8H905.51v57.52c5.6-.2,13.45-.73,23.64-1.53a32.11,32.11,0,0,0,19.51-9.19A26.37,26.37,0,0,0,956.85,1139.42Zm2.53,164.27a34.75,34.75,0,0,0,26-11.12,36.61,36.61,0,0,0,10.52-26.3A37.43,37.43,0,0,0,985,1239.5a38.31,38.31,0,0,0-25.57-11.85q-11.29-.6-26.9-.4H919.36c-5.59.13-10.19.2-13.85.2v76.24Zm58.33-166.8c0,6.93-1.47,14.79-4.33,23.64a133.65,133.65,0,0,1-8.72,19.91,115.38,115.38,0,0,1,12.65,7.19,86.16,86.16,0,0,1,11.52,8.79q28.65,29.07,28.69,69.85,0,40.95-28.69,69.78-28.66,29.25-69.45,29.29H842.52V1050.87h87.76q36.56,0,62.46,26.17Q1017.7,1102.41,1017.71,1136.89Zm-324.6,63.59q17.17,0,29.43-13a44.42,44.42,0,0,0,12.12-31.23c0-11.45-4.2-21.5-12.52-30.22q-12.89-12.49-39-12.46H647.63v86.76H672v.2ZM584.45,1050.87h102.6q49.94,0,82.3,32c10.59,10.52,18,20.44,22.44,29.82q8,17.19,8,41.55v8.19q0,31.77-19.84,59.93a82.58,82.58,0,0,1-37.69,29l73.18,113.92H738.19l-90.36-139.09v139.09H584.65Zm-142,210.87-28.69-66.52-29,66.52Zm-28.83-217.26,143.56,320.86H488.63l-21.24-47.8H359.73l-21.24,47.8H270.17Zm-100.47,5.66v63H186.68v63.39h94.81v63H186.68v126.24H123.49v-315.6Z"></path>
    <path d="M123.82,930.76H152a28.2,28.2,0,0,1,28.21,28.11,26.5,26.5,0,0,1-8.31,19.8,27.28,27.28,0,0,1-19.9,8.21h-12V1011H123.82Zm36.67,19.6a11.56,11.56,0,0,0-8.51-3.63h-12v24.18l12,.05a12,12,0,0,0,8.51-20.6Z"></path>
    <path d="M187.16,930.76h26.17q12.75,0,21,8.16a27.92,27.92,0,0,1,5.72,7.61,25,25,0,0,1,2,10.6v2.09A26,26,0,0,1,237,974.49a20.88,20.88,0,0,1-9.6,7.42L246.08,1011H226.37l-23-35.48V1011H187.21Zm27.72,38.16a10,10,0,0,0,7.51-3.33,11.31,11.31,0,0,0,3.09-8,10.88,10.88,0,0,0-3.19-7.72q-3.28-3.18-9.95-3.18h-9.06v22.14h6.22v0Z"></path>
    <path d="M319.47,942.1A40.69,40.69,0,0,1,262,999.67a40.69,40.69,0,1,1,57.52-57.57Zm-46,11.44a24.41,24.41,0,0,0,0,34.54,24.43,24.43,0,1,0,0-34.54Z"></path>
    <path d="M359.68,930.76q17.42,0,29.31,11.79,10.74,10.8,10.74,28.36T389,999.22Q377.14,1011,359.68,1011H338.33V930.81h21.35ZM377,953.4q-6.62-6.67-17.41-6.67H354.4V994.9h5.38q10.85,0,17.36-6.62t6.52-17.47Q383.66,960,377,953.4Z"></path>
    <path d="M450.54,990.62a15.52,15.52,0,0,0,4.82-11.35V930.76h16.23v48.56a32.45,32.45,0,1,1-64.89,0V930.76h16.22v48.51a16.39,16.39,0,0,0,16.22,16.12A15.69,15.69,0,0,0,450.54,990.62Z"></path>
    <path d="M519.21,1011.51a40.7,40.7,0,0,1,0-81.4l-.05.2q16.51,0,28.86,11.89l-11.5,11.49a23.76,23.76,0,0,0-17.26-7.16A23.29,23.29,0,0,0,502,953.69a24.38,24.38,0,0,0,0,34.54,24.46,24.46,0,0,0,34.53-.05l11.5,11.49A39.48,39.48,0,0,1,519.21,1011.51Z"></path>
    <path d="M607.68,930.76v16H588V1011H571.8V946.73H552.05v-16Z"></path>
    <path d="M614.64,930.76h16.13V1011H614.64Z"></path>
    <path d="M707.2,942.1a40.49,40.49,0,1,1-28.76-12A39.31,39.31,0,0,1,707.2,942.1Zm-46,11.44a24.38,24.38,0,0,0,0,34.54,24.43,24.43,0,1,0,0-34.54Z"></path>
    <path d="M774.37,975.09V930.56h16.17v82.05l-48.36-46.08v44.54H726.06v-82Z"></path>
    <path d="M932.58,769.53a159.59,159.59,0,1,0,225.64,225.64Z"></path>
    <path d="M1072.83,569,949.55,445.76a17.87,17.87,0,0,0-25.26,0L774.46,595.59c-9.66,8.42-26.08-2.93-15.87-15.86L970.13,368.2c34.8-37.05,48.64-59.7,0-105.39L862.84,155.52c14.23,26.94-.05,46.5-25.88,74l-1.27,1.27c-.39.4-.78.81-1.18,1.2,0,0-220,220.08-220.73,221-56.37,60.39-57.35,131.1-24.37,195.18a125.31,125.31,0,0,0,22.84,31.23L888.57,955.72c-46.48-73.8-43-145.93,13.87-216.28Zm-136-94.21a4.34,4.34,0,0,1,7.42-3.06L1041.1,569l-96,96a5.24,5.24,0,0,1-5.9.27,4.26,4.26,0,0,1-2.3-3.83Zm42.38-180.29a2.32,2.32,0,0,1,3.93-1.33c4.21,4.11,10.59,11.87,10.6,20.94,0,.06,0,.13,0,.2-.55,7.13-4,13.24-10.9,21a2.33,2.33,0,0,1-3.42.09L967.5,323.26a2.33,2.33,0,0,1-.2-3C974.66,310.48,978.19,301.94,979.24,294.54Zm-17.19-22,7,7.18a14.38,14.38,0,0,1,3.32,13.32,49.38,49.38,0,0,1-10.57,21.12,2.34,2.34,0,0,1-3.46.14l-12-12.25a2.33,2.33,0,0,1-.19-3c7.21-9.57,10.79-17.94,11.92-25.23A2.33,2.33,0,0,1,962.05,272.58ZM941,251.45l6.93,7.11c3.11,3.31,4.15,8.32,3.08,13.36a48.89,48.89,0,0,1-10.27,21.15,2.32,2.32,0,0,1-3.45.14l-12-12.3a2.3,2.3,0,0,1-.2-3c7.22-9.57,10.83-17.91,12-25.19A2.33,2.33,0,0,1,941,251.45Zm-21.09-21.13,6.85,7c3,3.21,3.85,8.2,2.85,13.4a48.7,48.7,0,0,1-9.95,21.16,2.33,2.33,0,0,1-3.47.16l-12.08-12.34a2.33,2.33,0,0,1-.2-3c7.23-9.57,10.87-17.88,12-25.15A2.33,2.33,0,0,1,919.86,230.32Zm-21.1-21.13,6.79,7c2.81,3.11,3.54,8.09,2.61,13.44a48.74,48.74,0,0,1-9.64,21.18A2.33,2.33,0,0,1,895,251l-12.13-12.38a2.33,2.33,0,0,1-.2-3c7.23-9.57,10.91-17.85,12.08-25.11A2.33,2.33,0,0,1,898.76,209.19Zm-37.2,5.17c7.24-9.57,11-17.82,12.14-25.07a2.32,2.32,0,0,1,4-1.23l6.73,6.9c6.13,6.95,1.17,24.3-6.95,34.65a2.33,2.33,0,0,1-3.5.2l-12.18-12.42A2.33,2.33,0,0,1,861.56,214.36Z"></path>
  </symbol>
</svg>